<svg xmlns="http://www.w3.org/2000/svg" width="220" height="46" fill-rule="evenodd" xmlns:v="https://vecta.io/nano"><path d="M90.429 14.66l-.057-5.954c-.057-.951-.282-1.403-1.235-1.598-.231-.057-.723-.088-1.125-.088-.315 0-.486-.059-.486-.255s.198-.254.633-.254l4.084.088 3.629-.088c.404 0 .602.062.602.254s-.167.255-.515.255c-.315 0-.489.031-.831.088-.783.136-1.014.617-1.068 1.598-.06.899-.06 1.685-.06 5.954v5.198l.084 3.959c0 1.602-.108 3.397-.69 4.967-.606 1.716-2.125 3.652-4.894 5.309-.372.221-.831.449-1.437.73-.203.114-.431.167-.572.167-.114 0-.237-.082-.237-.225 0-.135.147-.251.633-.502.377-.198.81-.509 1.383-1.067 2.189-2.161 2.158-4.972 2.158-10.475V14.66m17.914 5.756c.114 0 .141-.054.114-.134l-2.393-6.072c-.027-.086-.058-.224-.108-.224-.093 0-.123.138-.15.224l-2.447 6.037c-.057.115 0 .169.093.169h4.891zm-5.413 1.323c-.141 0-.177.026-.231.164l-1.355 3.201c-.264.591-.372 1.184-.372 1.464 0 .422.231.674 1.005.674h.375c.319 0 .378.114.378.253 0 .199-.143.255-.41.255-.828 0-2.01-.086-2.817-.086l-2.942.086c-.311 0-.453-.056-.453-.255 0-.139.085-.253.282-.253l.753-.028c1.151-.17 1.583-.894 2.099-2.11l6.621-15.026c.294-.673.492-.949.75-.949.375 0 .489.224.75.759.603 1.316 4.834 11.09 6.45 14.714.981 2.164 1.697 2.475 2.156 2.554a6.17 6.17 0 0 0 .947.085c.234 0 .348.086.348.253 0 .199-.149.255-1.094.255-.891 0-2.735 0-4.864-.056-.461-.03-.747-.03-.747-.199 0-.139.057-.222.314-.253.174-.028.345-.252.231-.531l-1.958-4.807c-.057-.138-.143-.164-.264-.164h-5.953 0zm18.83-.203c0-1.289-.235-1.796-.58-2.5-.176-.36-3.628-5.612-4.522-6.877-.633-.867-1.149-1.434-1.641-1.684-.309-.168-.743-.31-1.067-.31-.196 0-.372-.087-.372-.254s.176-.222.496-.222l3.163.053 2.876-.053c.237 0 .375.053.375.222 0 .196-.174.196-.57.313-.207.05-.348.166-.348.363s.114.476.313.813l4.204 6.995 3.77-6.409c.261-.527.381-.951.381-1.261 0-.22-.12-.452-.553-.53-.228-.054-.459-.09-.459-.285 0-.17.147-.222.432-.222l2.477.053 2.707-.053c.286 0 .462.053.462.199 0 .17-.204.277-.494.277-.258 0-.722.109-1.092.281-.548.256-.78.481-1.325 1.122-.834.955-4.463 6.631-4.921 7.64-.375.875-.321 1.605-.321 2.39v1.911l.056 2.384c.065.703.291 1.15 1.044 1.262.369.057.917.085 1.266.085.281 0 .43.141.43.253 0 .169-.201.255-.554.255-1.575 0-3.274-.086-3.967-.086l-3.28.086c-.346 0-.553-.056-.553-.255 0-.112.118-.253.408-.253.348 0 .66-.028.891-.085.522-.113.723-.56.777-1.262.09-1.012.09-1.995.09-2.384v-1.974m15.89-14.906c.088-.477.258-.734.492-.734s.405.142.773.871l7.86 15.839L154.6 6.572c.232-.451.375-.679.638-.679s.431.284.52.871l2.618 17.358c.257 1.771.544 2.587 1.409 2.835.841.255 1.414.283 1.785.283.261 0 .464.031.464.199 0 .223-.35.309-.751.309-.723 0-4.695-.086-5.846-.17-.659-.055-.837-.139-.837-.307 0-.146.121-.229.319-.314.17-.055.26-.422.143-1.205l-1.728-12.357h-.112l-6.273 12.749c-.666 1.32-.81 1.571-1.07 1.571s-.549-.56-1.011-1.396l-3.304-6.377-2.994-6.24h-.119l-1.496 11.179c-.059.502-.09.871-.09 1.322 0 .53.38.786.87.895.519.114.92.142 1.214.142.222 0 .426.054.426.199 0 .253-.255.309-.688.309-1.214 0-2.508-.086-3.029-.086l-2.851.086c-.285 0-.519-.056-.519-.309 0-.145.177-.199.465-.199.231 0 .426 0 .861-.085.809-.166 1.044-1.262 1.184-2.213l2.848-18.314"/><path d="M172.831 20.416c.112 0 .143-.054.112-.134l-2.381-6.072c-.036-.086-.062-.224-.124-.224-.087 0-.107.138-.145.224l-2.446 6.037c-.054.115 0 .169.091.169h4.894zm-5.409 1.323c-.149 0-.172.026-.237.164l-1.35 3.201c-.261.591-.371 1.184-.371 1.464 0 .422.222.674 1.005.674h.375c.319 0 .371.114.371.253 0 .199-.141.255-.4.255-.835 0-2.017-.086-2.823-.086l-2.94.086c-.308 0-.459-.056-.459-.255 0-.139.087-.253.291-.253l.75-.028c1.15-.17 1.583-.894 2.1-2.11l6.619-15.026c.291-.673.492-.949.753-.949.379 0 .486.224.749.759.605 1.316 4.834 11.09 6.448 14.714.978 2.164 1.697 2.475 2.16 2.554a6.16 6.16 0 0 0 .947.085c.231 0 .347.086.347.253 0 .199-.143.255-1.095.255-.89 0-2.731 0-4.863-.056-.46-.03-.753-.03-.753-.199 0-.139.056-.222.317-.253.179-.028.349-.252.233-.531l-1.962-4.807c-.049-.138-.138-.164-.255-.164h-5.956 0zm20.316-3.291c0 .252.063.334.237.422.546.166 1.292.226 1.928.226 1.009 0 1.354-.087 1.786-.396.776-.533 1.641-1.565 1.641-3.535 0-3.373-2.363-4.238-3.862-4.238-.628 0-1.232.021-1.493.086-.174.051-.237.133-.237.335v7.101zm-3.218-1.85l-.027-5.057c-.059-.815-.288-1.065-1.094-1.29-.201-.054-.635-.085-1.014-.085-.248 0-.425-.087-.425-.254s.196-.222.575-.222l3.456.053 3.942-.053c1.611 0 3.454.14 4.804 1.014.726.473 1.79 1.684 1.79 3.284 0 1.767-1.037 3.344-3.515 5.281l5.551 6.346c1.419 1.377 2.306 1.487 2.711 1.572.26.056.398.056.605.056.199 0 .312.141.312.253 0 .199-.168.255-.485.255h-2.424c-1.407 0-2.096-.141-2.756-.477-1.1-.538-2.044-1.659-3.461-3.515l-2.39-3.259c-.143-.136-.287-.169-.459-.169l-2.277-.047c-.114 0-.203.047-.203.196v.335l.149 5.08c.087.703.203 1.15.978 1.262a9.7 9.7 0 0 0 1.238.085c.201 0 .319.141.319.253 0 .169-.205.255-.52.255-1.472 0-3.571-.086-3.94-.086l-3.116.086c-.313 0-.489-.086-.489-.255 0-.112.087-.253.405-.253.374 0 .662-.028.894-.085.514-.113.655-.56.747-1.262.116-1.012.116-2.894.116-5.08v-4.216h0zm20.009 8.875c-2.505-2.048-3.165-4.743-3.165-7.047 0-1.632.547-4.44 2.967-6.548 1.835-1.57 4.255-2.526 8.028-2.526 1.58 0 2.531.111 3.686.253l2.531.391c.291.029.377.146.377.278 0 .202-.06.482-.118 1.322l-.087 2.583c-.03.343-.114.591-.344.591-.199 0-.26-.196-.26-.508-.028-.753-.343-1.601-.982-2.212-.857-.823-2.558-1.409-4.893-1.409-2.213 0-3.627.394-4.778 1.345-1.867 1.578-2.329 3.878-2.329 6.213 0 5.67 4.493 8.369 7.886 8.369 2.251 0 3.483-.168 4.496-1.265.429-.477.773-1.146.861-1.599.06-.368.114-.475.314-.475.175 0 .294.222.294.421 0 .281-.294 2.358-.548 3.171-.118.42-.232.534-.664.703-1.007.395-2.938.532-4.576.532-3.46 0-6.394-.7-8.696-2.583m-87.443 7.32h.991v2.961h3.789v-2.961h.992v7.131h-.992v-3.263h-3.789v3.263h-.991v-7.131m15.972 3.566c0-2.115 1.58-3.747 3.81-3.747s3.809 1.632 3.809 3.747-1.58 3.747-3.809 3.747-3.81-1.632-3.81-3.747zm6.566 0c0-1.561-1.083-2.84-2.756-2.84s-2.757 1.279-2.757 2.84 1.083 2.84 2.757 2.84 2.756-1.279 2.756-2.84h0z"/><path d="M150.805 32.793h1.477l2.323 5.398h.042l2.302-5.398h1.476v7.131h-.99v-5.862h-.021l-2.467 5.862h-.661l-2.468-5.862h-.02v5.862h-.992v-7.131m18.202 0h4.718v.907h-3.727v2.125h3.47v.906h-3.47v2.286h3.912v.906h-4.904v-7.131m15.302 5.642c.35.524.96.765 1.549.765.65 0 1.456-.403 1.456-1.189 0-1.641-3.603-.624-3.603-3.404 0-.836.723-1.994 2.478-1.994.795 0 1.56.161 2.106.816l-.805.714c-.248-.372-.733-.624-1.301-.624-1.094 0-1.424.644-1.424 1.087 0 1.803 3.603.725 3.603 3.294 0 1.38-1.136 2.206-2.54 2.206-.939 0-1.838-.312-2.333-.987l.816-.684M7.575 0h23.544L21.79 32.438C19.712 39.117 18.674 46 3.53 46H0l1.253-3.998s5.758-.956 6.583-3.695c1.664-5.509 7.557-26.673 7.932-29.553s-.543-4.949-4.144-4.949c-3.593 0-4.988-.007-4.988-.007L7.575 0"/><path d="M33.932 0h5.242l6.537 22.399L56.459 0h14.448l5.934 43.04H61.797l-3.015-28.186L44.854 43.04h-7.909l-7.92-26.084L33.932 0"/></svg>