<?xml version="1.0" encoding="UTF-8"?>
<svg width="34px" height="48px" viewBox="0 0 34 48" version="1.1" xmlns="http://www.w3.org/2000/svg" xmlns:xlink="http://www.w3.org/1999/xlink">
    <title>places copy 6</title>
    <g id="Mockups---Post-Types" stroke="none" stroke-width="1" fill="none" fill-rule="evenodd">
        <g id="Available-Homes-Index" transform="translate(-915.000000, -2873.000000)" fill="#000000" fill-rule="nonzero">
            <path d="M947.785804,2884.94674 C947.614947,2884.30639 947.267987,2883.62407 947.01131,2883.02669 C943.939894,2875.64533 937.228913,2873 931.810132,2873 C924.556113,2873 916.566659,2877.86414 915.5,2887.89026 L915.5,2889.93866 C915.5,2890.02414 915.529462,2890.79205 915.571311,2891.17617 C916.169257,2895.95438 919.939615,2901.03256 922.75547,2905.81076 C925.784925,2910.93013 928.928434,2915.96612 932.042815,2921 C933.963204,2917.71498 935.876673,2914.38678 937.753315,2911.1868 C938.264771,2910.2477 938.858476,2909.30916 939.37049,2908.4128 C939.711758,2907.81597 940.363717,2907.21914 940.661574,2906.66382 C943.690917,2901.11749 948.566994,2895.52829 948.566994,2890.02403 L948.566994,2887.76282 C948.567106,2887.1661 947.82743,2885.07541 947.785804,2884.94674 Z M931.942935,2895.22966 C929.810621,2895.22966 927.476648,2894.16344 926.324616,2891.21891 C926.152977,2890.7502 926.166815,2889.81088 926.166815,2889.72483 L926.166815,2888.40217 C926.166815,2884.64844 929.354071,2882.94142 932.126849,2882.94142 C935.540427,2882.94142 938.180514,2885.67247 938.180514,2889.08604 C938.180514,2892.49951 935.356512,2895.22966 931.942935,2895.22966 Z" id="places-copy-6"></path>
        </g>
    </g>
</svg>