<svg xmlns="http://www.w3.org/2000/svg" xmlns:xlink="http://www.w3.org/1999/xlink" viewbox="0 0 66 66" xmlns:v="https://vecta.io/nano"><defs><path id="A" d="M0 0v64.947h64.937V0H0z"/></defs><g transform="matrix(-1 0 0 -1 65.93699 65.946938)" fill-rule="evenodd"><mask id="B" fill="#fff"><use xlink:href="#A"/></mask><g fill="currentColor"><path d="M32.464 64.947c17.908 0 32.473-14.565 32.473-32.473S50.372 0 32.464 0-.01 14.565-.01 32.473s14.565 32.473 32.473 32.473zm0-62.32c16.462 0 29.847 13.385 29.847 29.847S48.926 62.32 32.464 62.32 2.617 48.936 2.617 32.473 16.001 2.627 32.464 2.627z" mask="url(#B)"/><path d="M27.394 42.568c.262.248.622.379.967.379s.704-.131.966-.379l10.262-9.705a1.25 1.25 0 0 0 .401-.915c0-.339-.138-.666-.401-.915l-10.262-9.705c-.539-.51-1.395-.51-1.933 0s-.539 1.319 0 1.829l9.295 8.791-9.295 8.791c-.525.51-.525 1.332 0 1.829z"/></g></g></svg>