<svg xmlns="http://www.w3.org/2000/svg" viewbox="0 0 85 84" fill="none" fill-rule="evenodd" xmlns:v="https://vecta.io/nano"><circle stroke="currentColor" stroke-width="3" cx="42.5" cy="41.546" r="40.046"/><path d="M45.39 41.544l12.992-12.992c.825-.825.825-2.064 0-2.89-.826-.821-2.06-.821-2.886 0L42.498 38.659 29.506 25.662a2 2 0 0 0-2.89 0 2 2 0 0 0 0 2.89l12.997 12.992-12.997 12.997c-.821.826-.821 2.06 0 2.886.826.825 2.065.825 2.89 0l12.992-12.992 12.997 12.992a1.99 1.99 0 0 0 2.886 0 1.99 1.99 0 0 0 0-2.886L45.39 41.544z" stroke="#fff" fill="currentColor"/></svg>