<svg xmlns="http://www.w3.org/2000/svg" xmlns:xlink="http://www.w3.org/1999/xlink" width="33" height="33" xmlns:v="https://vecta.io/nano"><g fill="#3389b8"><path d="M24.367 7.229c-.35 0-.635.284-.635.635s.284.635.635.635.635-.284.635-.635-.284-.635-.635-.635zm6.729 1.269h-2.285V1.135c0-.351-.284-.635-.635-.635H15.48c-.351 0-.635.284-.635.635v7.363h-2.984a3.18 3.18 0 0 0-3.11-2.539h-1.27a3.18 3.18 0 0 0-3.11 2.539H2.404C1.354 8.498.5 9.352.5 10.402v18.154c0 1.05.854 1.904 1.904 1.904h1.968A3.18 3.18 0 0 0 7.482 33h1.27a3.18 3.18 0 0 0 3.11-2.539h19.234c1.05 0 1.904-.854 1.904-1.904V10.402c0-1.05-.854-1.904-1.904-1.904zM16.115 1.77h11.426v9.268H16.115V1.77zM1.77 28.557V10.402c0-.35.285-.635.635-.635h1.904v19.424H2.404c-.35 0-.635-.285-.635-.635zm6.982 3.174h-1.27c-1.05 0-1.904-.854-1.904-1.904V9.133c0-1.05.854-1.904 1.904-1.904h1.27c1.05 0 1.904.854 1.904 1.904v20.693c0 1.05-.854 1.904-1.904 1.904zm22.979-3.174c0 .35-.285.635-.635.635h-19.17V9.768h2.92v1.904c0 .351.284.635.635.635h12.695c.351 0 .635-.284.635-.635V9.768h2.285c.35 0 .635.285.635.635v18.154zm-3.555-14.981H15.48c-.351 0-.635.284-.635.635v3.809c0 .351.284.635.635.635h12.695c.351 0 .635-.284.635-.635v-3.809c0-.351-.284-.635-.635-.635zm-.635 3.809H16.115v-2.539h11.426v2.539z"/><use xlink:href="#B"/><use xlink:href="#B" y="2.539"/><use xlink:href="#B" y="5.078"/><use xlink:href="#C"/><use xlink:href="#C" y="2.539"/><use xlink:href="#C" y="5.078"/><use xlink:href="#C" x="5.078"/><use xlink:href="#C" x="5.078" y="2.539"/><use xlink:href="#C" x="5.078" y="5.078"/><path d="M19.289 5.959h5.078c.351 0 .635-.284.635-.635s-.284-.635-.635-.635h-5.078c-.351 0-.635.284-.635.635s.284.635.635.635zm0 2.539h2.539c.351 0 .635-.284.635-.635s-.284-.635-.635-.635h-2.539c-.351 0-.635.284-.635.635s.284.635.635.635z"/></g><defs ><path id="B" d="M18.02 19.924H15.48c-.351 0-.635.284-.635.635s.284.635.635.635h2.539c.351 0 .635-.284.635-.635s-.284-.635-.635-.635z"/><path id="C" d="M23.098 19.924h-2.539c-.351 0-.635.284-.635.635s.284.635.635.635h2.539c.351 0 .635-.284.635-.635s-.284-.635-.635-.635z"/></defs></svg>