<svg height="38" viewBox="0 0 237 38" width="237" xmlns="http://www.w3.org/2000/svg"><g fill="#3389b8" fill-rule="evenodd" transform="translate(.3125 .400388)"><path d="m68.6041667 25.9514287-11.3271117 7.5153857 3.9451015-12.6641963-10.9456414-8.0194325 13.7653184-.311518 4.5623332-12.4716676 4.5623332 12.4716676 13.7653184.311518-10.9456414 8.0194325 3.9451014 12.6641963z"/><path d="m117.9375 25.9514287-11.327112 7.5153857 3.945102-12.6641963-10.9456416-8.0194325 13.7653186-.311518 4.562333-12.4716676 4.562333 12.4716676 13.765319.311518-10.945642 8.0194325 3.945102 12.6641963z"/><path d="m19.2708333 25.9514287-11.3271116 7.5153857 3.9451014-12.6641963-10.94564138-8.0194325 13.76531838-.311518 4.5623332-12.4716676 4.5623332 12.4716676 13.7653184.311518-10.9456414 8.0194325 3.9451015 12.6641963z"/><path d="m167.270833 25.9514287-11.327111 7.5153857 3.945101-12.6641963-10.945641-8.0194325 13.765318-.311518 4.562333-12.4716676 4.562334 12.4716676 13.765318.311518-10.945641 8.0194325 3.945101 12.6641963z"/><path d="m216.604167 25.9514287-11.327112 7.5153857 3.945101-12.6641963-10.945641-8.0194325 13.765318-.311518 4.562334-12.4716676 4.562333 12.4716676 13.765318.311518-10.945641 8.0194325 3.945101 12.6641963z"/></g></svg>