<svg height="22" viewBox="0 0 23 22" width="23" xmlns="http://www.w3.org/2000/svg" xmlns:xlink="http://www.w3.org/1999/xlink"><defs><path id="a" d="m12.75 4.03927083c2.836875 0 3.1733333.010625 4.2933854.06197917 1.2094792.05489583 2.3313021.2975 3.1945834 1.16078125.8632812.86328125 1.1058854 1.98510417 1.1607812 3.19458333.0513542 1.12005209.0619792 1.45651042.0619792 4.29338542s-.010625 3.1733333-.0619792 4.2933854c-.0548958 1.2094792-.2975 2.3313021-1.1607812 3.1945833-.8632813.8632813-1.9851042 1.1058855-3.1945834 1.1607813-1.1200521.0513542-1.4565104.0619792-4.2933854.0619792s-3.17333333-.010625-4.29338542-.0619792c-1.20947916-.0548958-2.33130208-.2975-3.19458333-1.1607813-.86328125-.8632812-1.10588542-1.9851041-1.16078125-3.1945833-.05135417-1.1200521-.06197917-1.4565104-.06197917-4.2933854s.010625-3.17333333.06197917-4.29338542c.05489583-1.20947916.2975-2.33130208 1.16078125-3.19458333s1.98510417-1.10588542 3.19458333-1.16078125c1.12005209-.05135417 1.45651042-.06197917 4.29338542-.06197917zm1.0917833-1.91343446c1.9129956.00350036 2.3178298.01889577 3.2892584.06291363 1.7265625.07880208 3.2432812.50203125 4.4607291 1.71947917 1.2174479 1.21744791 1.6406771 2.73416666 1.7194792 4.46072916.0440179.97142857.0594133 1.37626276.0629136 3.28925837l.0007878.7921207.0000486.2996626c0 .1030562-.0000158.2028937-.0000486.2996626l-.0007878.7921207c-.0035003 1.9129956-.0188957 2.3178298-.0629136 3.2892584-.0788021 1.7265625-.5020313 3.2432812-1.7194792 4.4607291s-2.7341666 1.6406771-4.4607291 1.7194792c-.9714286.0440179-1.3762628.0594133-3.2892584.0629136l-.7921207.0007878-.2996626.0000486c-.1030562 0-.2028937-.0000158-.2996626-.0000486l-.7921207-.0007878c-1.91299561-.0035003-2.3178298-.0188957-3.28925837-.0629136-1.7265625-.0788021-3.24328125-.5020313-4.46072916-1.7194792-1.21744792-1.2174479-1.64067709-2.7341666-1.71947917-4.4607291-.04401786-.9714286-.05941327-1.3762628-.06291363-3.2892584v-2.1835666c.00350036-1.91299561.01889577-2.3178298.06291363-3.28925837.07880208-1.7265625.50203125-3.24328125 1.71947917-4.46072916 1.21744791-1.21744792 2.73416666-1.64067709 4.46072916-1.71947917.97142857-.04401786 1.37626276-.05941327 3.28925837-.06291363zm-1.0917833 5.16822613c-3.01307292 0-5.4559375 2.44286458-5.4559375 5.4559375 0 3.0130729 2.44286458 5.4559375 5.4559375 5.4559375 3.0130729 0 5.4559375-2.4428646 5.4559375-5.4559375 0-3.01307292-2.4428646-5.4559375-5.4559375-5.4559375zm0 1.91427083c1.9558854 0 3.5416667 1.58578127 3.5416667 3.54166667s-1.5857813 3.5416667-3.5416667 3.5416667-3.54166667-1.5857813-3.54166667-3.5416667 1.58578127-3.54166667 3.54166667-3.54166667zm5.6719792-3.4053125c-.7041631 0-1.275.57083695-1.275 1.275 0 .70416306.5708369 1.275 1.275 1.275.704163 0 1.275-.57083694 1.275-1.275 0-.70416305-.570837-1.275-1.275-1.275z"/><mask id="b" fill="#fff"><use fill="#fff" fill-rule="evenodd" xlink:href="#a"/></mask></defs><g fill="none" fill-rule="evenodd" opacity=".99" transform="translate(-1.25 -2)"><path d="m0 0h25.5v25.5h-25.5z"/><use fill="#000" xlink:href="#a"/><g fill="#0c0033" mask="url(#b)"><path d="m0 0h25.5v25.5h-25.5z"/></g></g></svg>