<svg height="49" viewBox="0 0 62 49" width="62" xmlns="http://www.w3.org/2000/svg"><g fill="none" transform="translate(.027313 .002)"><path d="m60.9690076 16.7049249c-.6279229-.6279228-1.4627336-.9751557-2.3507786-.9763655h-4.4137288l-20.0070246-11.5829379c.0665428-.26193697.102113-.53609365.102113-.81847744 0-1.83452674-1.4924963-3.32714406-3.327144-3.32714406-1.8345268 0-3.3270231 1.49249633-3.3270231 3.32714406 0 .28238379.0355702.55666145.1021131.81859843l-20.0067827 11.58281691h-4.41360784c-.88804499.0012098-1.72285569.3484427-2.35077851.9763655-.62792283.6279228-.97394581 1.4627335-.97636555 2.3507785v26.6171525c.00241974.888045.34844272 1.7228557.97636555 2.3507786.62792282.6279228 1.46273352.9751556 2.35077851.9763655h11.90633624c.4996766 0 .907403-.4065165.907403-.9074029 0-.4996766-.4077264-.907403-.907403-.907403h-11.90633624c-.40046715 0-.77915664-.158493-1.06710584-.4452323-.28673932-.2879492-.44523237-.6666387-.44523237-1.0671059v-26.6171525c0-.4004671.15849305-.7791566.44523237-1.0671058.2879492-.2867393.66663869-.4452324 1.06710584-.4452324h55.29108494c.4004672 0 .7791567.1584931 1.0671059.4452324.2867393.2879492.4452324.6666387.4452324 1.0671058v26.6171525c0 .4004672-.1584931.7791567-.4452324 1.0671059-.2879492.2867393-.6666387.4452323-1.0671059.4452323h-39.755137c-.5008864 0-.9074029.4077264-.9074029.907403 0 .5008864.4065165.9074029.9074029.9074029h39.755137c.888045-.0012099 1.7228557-.3484427 2.3507786-.9763655.6279228-.6279229.9751556-1.4627336.9763655-2.3507786v-26.6171525c-.0012099-.887924-.3484427-1.7228557-.9763655-2.3507785zm-29.996563-14.88999806c.8339638 0 1.5123382.67837443 1.5123382 1.51233821 0 .8338428-.6783744 1.51221722-1.5123382 1.51221722-.5410541 0-1.0153234-.28661833-1.2825838-.7150335-.0072592-.0140345-.0136715-.02831097-.0216567-.0421035-.0101629-.01754312-.0216567-.03387637-.0327875-.05057259-.1114291-.21063846-.1753102-.45019284-.1753102-.70462862.000121-.83384279.6784954-1.51221722 1.5123382-1.51221722zm-19.6095822 13.91363256 17.2963097-10.01361478c.5992488.58061688 1.4149436.93922252 2.3132725.93922252.8984499 0 1.7142656-.35848465 2.3135145-.93934351l17.2964306 10.01373577z" fill="#979797"/><path d="m58.0507997 20.8330033c-.1693818-.168172-.4028869-.2649617-.6424412-.2649617-.1657523-.0012098-.3024677-.1367153-.3024677-.3024676 0-.2395544-.0967896-.4730594-.2649616-.6424413-.1693819-.168172-.4028869-.2649616-.6424413-.2649616h-4.1474363c-.4996765 0-.9074029.4065165-.9074029.9074029 0 .4996765.4077264.9074029.9074029.9074029h3.4445015c.2080977.439183.5662194.7960949 1.0054025 1.0054025v20.3718006c-.4391831.2093076-.7960949.5662194-1.0054025 1.0054024h-49.0457331c-.20809774-.439183-.56500955-.7960948-1.00540244-1.0054024v-20.3718006c.44039289-.2093076.7973047-.5662195 1.00540244-1.0054025h41.9716199c.5008864 0 .9074029-.4077264.9074029-.9074029 0-.5008864-.4065165-.9074029-.9074029-.9074029h-42.6745547c-.2383445 0-.47305939.0967896-.6412314.2649616-.16938188.1693819-.26617153.4028869-.26617153.6424413 0 .1657523-.1355055.3012578-.30246764.3024676-.2383445 0-.47305939.0967897-.6412314.2649617-.16938188.1693819-.26617152.4028869-.26617152.6424413v21.7776702c0 .2395544.09678964.4730594.26617152.6424413.16817201.168172.40167703.2649616.6412314.2649616.16696214 0 .30246764.1367154.30246764.3024677 0 .2395543.09678965.4730594.26617153.6424412.16817201.168172.4028869.2649617.6412314.2649617h50.4516027c.2395544 0 .4730594-.0967897.6424413-.2649617.168172-.1693818.2649616-.4028869.2649616-.6424412 0-.1657523.1367154-.3024677.3024677-.3024677.2395543 0 .4730594-.0967896.6424412-.2661715.1681721-.168172.2649617-.401677.2649617-.6412314v-21.7776702c0-.2395544-.0967896-.4729384-.2649617-.6424413z" fill="#979797"/><g fill="#3389b8"><path d="m15.2440062 25.4074029c-2.5017704 0-4.5370146 2.0352443-4.5370146 4.5370147v4.8394822c0 2.5017704 2.0352442 4.5370147 4.5370146 4.5370147s4.5370146-2.0352443 4.5370146-4.5370147v-4.8394822c0-2.5017704-2.0352442-4.5370147-4.5370146-4.5370147zm2.7222088 9.3764969c0 1.5010864-1.2211224 2.7222088-2.7222088 2.7222088s-2.7222088-1.2211224-2.7222088-2.7222088v-4.8394822c0-1.5010865 1.2211224-2.7222088 2.7222088-2.7222088 1.5009654 0 2.7222088 1.2211223 2.7222088 2.7222088z"/><path d="m26.1328413 25.4074029h-3.6296117c-.5011284 0-.9074029.4062746-.9074029.907403v12.0987056c0 .5011284.4062745.907403.9074029.907403s.9074029-.4062746.9074029-.907403v-3.9320793h2.7222088c2.5017704 0 4.5370147-2.0352443 4.5370147-4.5370146 0-2.5017704-2.0352443-4.5370147-4.5370147-4.5370147zm0 7.2592234h-2.7222088v-5.4444175h2.7222088c1.5009654 0 2.7222088 1.2211223 2.7222088 2.7222088 0 1.5010864-1.2211224 2.7222087-2.7222088 2.7222087z"/><path d="m39.4417805 37.5061086h-5.1421919v-4.234547h3.9323214c.5011284 0 .9074029-.4062745.9074029-.9074029s-.4062745-.9074029-.9074029-.9074029h-3.9323214v-4.234547h5.1421919c.5011284 0 .907403-.4062746.907403-.9074029 0-.5011284-.4062746-.907403-.907403-.907403h-6.0495948c-.5011284 0-.9074029.4062746-.9074029.907403v12.0987056c0 .5011284.4062745.907403.9074029.907403h6.0495948c.5011284 0 .907403-.4062746.907403-.907403s-.4062746-.9074029-.907403-.9074029z"/><path d="m50.3304947 25.4074029c-.5011284 0-.907403.4062746-.907403.907403v8.8226181l-5.5737527-9.2895072c-.0033876-.0059284-.0075012-.0112518-.0112518-.0170592-.009195-.0145184-.018632-.0286739-.0285529-.0425874-.0083481-.0117358-.0168172-.0229876-.0255283-.0342394-.0088321-.0112518-.0179061-.0221406-.0272221-.0329084-.0107678-.0124617-.0217777-.0246814-.0330294-.0364171-.0083482-.0087111-.0170592-.0171802-.0257703-.0254073-.0127036-.0122197-.0256492-.0241974-.0390788-.0354492-.0088321-.0076222-.0179061-.0147604-.0271011-.0218987-.0136716-.0107678-.0274641-.0212937-.0416196-.0310937-.0104048-.0072592-.0211727-.0141554-.0319405-.0209307-.0133086-.0084691-.0267382-.0168172-.0404097-.0245604-.0127037-.0072592-.0257703-.0139135-.0389579-.0204468-.0124616-.0061703-.0248023-.0124617-.0375059-.0180271-.0147605-.0066543-.0298838-.0125826-.0450072-.01839-.0119777-.0045975-.0237135-.009074-.0358122-.0130666-.0156073-.0052025-.0315776-.009921-.0475479-.0143975-.0127036-.0033876-.0252863-.0067752-.0381109-.0097999-.0151234-.0035086-.0303678-.0064123-.0457331-.009195-.0148814-.0025408-.0296419-.0048395-.0445233-.0067753-.0134295-.0016938-.0269801-.0030247-.0406516-.0041136-.0176641-.0014518-.0352073-.0021777-.0529924-.0026617-.0066542-.000121-.0130666-.0010889-.0197208-.0010889-.0053235 0-.0105259.0008469-.0158494.0008469-.018632.000363-.037264.0013309-.055896.0027827-.0118567.0009679-.0235924.0019358-.0353282.0032667-.0173011.0020568-.0344813.0048395-.0517825.0078641-.0129456.0022988-.0257702.0045976-.0385948.0073803-.0151234.0033876-.0301258.0075012-.0451282.0116147-.0145184.0039926-.0289159.0081061-.0431924.0128246-.0128246.0042346-.0255282.0090741-.0382319.0140345-.0158493.0060494-.0316986.0123407-.0471849.019358-.0110099.0049604-.0220197.0104049-.0329085.0158493-.0163333.0081061-.0325455.0166962-.0482739.0257702-.0048394.0027827-.0097999.0048395-.0145184.0077432-.0059284.0035086-.0111308.0077432-.0170592.0113728-.0145184.009195-.0287949.018632-.0427084.0286739-.0116148.0082271-.0229875.0168172-.0341184.0255283-.0112518.008953-.0222616.018027-.0330294.027464-.0124617.0106469-.0244394.0215357-.0361752.0329085-.008832.0084691-.0173011.0173012-.0257702.0261332-.0120987.0125827-.0239554.0255283-.0352072.0387159-.0076222.008953-.0150024.018269-.0222616.027585-.0105259.0134296-.0208098.0269801-.0306098.0408937-.0075012.0106468-.0143974.0216566-.0214147.0326665-.0083481.0130666-.0165752.0262541-.0241974.0398047-.0073802.0129456-.0141555.0262542-.0208098.0395628-.0061703.0122197-.0122197.0244394-.0177851.036901-.0066543.0150024-.0127036.0302468-.018632.0456121-.0044765.0116148-.008953.0233505-.0128246.0350863-.0054444.0158493-.0100419.0319406-.0145184.0481528-.0033877.0124617-.0067753.0248024-.009679.037385-.0035086.0152444-.0065333.0307307-.009316.0463381-.0025407.0146394-.0047185.0291579-.0066543.0437973-.0016938.0136715-.0031457.0274641-.0042345.0412566-.0014519.0175431-.0022988.0349652-.0026618.0525084-.000121.0066543-.0009679.0131876-.0009679.0198418v12.0987057c0 .5011284.4062746.9075239.907403.9075239s.9074029-.4063955.9074029-.9075239v-8.8224971l5.5737527 9.2895072c.0026617.0043555.0059284.0079851.0085901.0123406.0158493.0254073.0329085.0500887.0511775.0736812.0047185.0061703.009195.0128246.0141555.0188739.0216567.0266172.0447652.0519035.0693256.0758589.0084691.0082271.0174221.0158493.0261332.0237135.0176641.0159703.0355702.0312147.0544442.0457331.0100419.0077432.0200838.0154863.0303677.0227456.0226246.0159703.0459751.0309727.0700515.0448862.0056864.0032666.0110098.0070172.0168172.0101629.0308517.0170592.0629133.0319406.0957008.0452491.0064123.0026618.0129456.0047185.0193579.0071383.0267382.0101629.0539602.0191159.0817873.0267381.009195.0025407.018269.0048395.027464.0070173.0260122.0062913.0525084.0113727.0794885.0153653.009195.0013309.0183901.0031457.0277061.0042346.0331504.0038715.0667848.0062913.1009032.0064123.0019358 0 .0037506.0003629.0055654.0003629.0033876 0 .0068962-.0006049.0104049-.0007259.0326665-.0003629.064728-.0026617.0963057-.0062913.0116147-.0014519.0229875-.0035086.0346023-.0053234.0261332-.0041136.0519034-.009316.0771897-.0156074.0102839-.0026617.0205678-.0050814.0308517-.0079851.0727132-.0208098.1415549-.0505726.205557-.0879576.0036296-.0020568.0073802-.0035086.0110098-.0055654.0059284-.0035086.0111308-.0077432.0170592-.0113728.0145185-.009195.0287949-.018632.0427084-.0286739.0116148-.0082271.0229876-.0168172.0341184-.0254073.0112518-.0089531.0222616-.0180271.0330295-.0274641.0124616-.0106468.0244393-.0215357.0361751-.0327875.008832-.0084691.0173011-.0173011.0257702-.0261332.0120987-.0125826.0239555-.0254073.0352073-.0387158.0076221-.0089531.0150024-.0182691.0222616-.0275851.0105259-.0134295.0208098-.0269801.0306097-.0408936.0075012-.0106469.0143975-.0216567.0214147-.0326665.0083481-.0130666.0165752-.0262542.0241974-.0398047.0073802-.0129457.0141555-.0262542.0208098-.0395628.0061703-.0122197.0122197-.0244394.0177851-.0369011.0066543-.0150024.0127036-.0302467.018632-.0456121.0044765-.0116147.008953-.0233505.0128246-.0352072.0053235-.0158493.010042-.0319406.0145185-.0481529.0033876-.0124616.0067753-.0248023.0096789-.037385.0035087-.0152443.0065333-.0307307.009316-.046338.0025408-.0146394.0048395-.0291579.0066543-.0437973.0016939-.0136716.0031457-.0274641.0042346-.0412566.0014518-.0175431.0022987-.0349653.0026617-.0525084.000121-.0066543.0009679-.0131876.0009679-.0199629v-12.0987056c0-.5011284-.4062745-.907403-.9074029-.907403z"/></g></g></svg>