<svg xmlns="http://www.w3.org/2000/svg" xmlns:xlink="http://www.w3.org/1999/xlink" width="34" height="29" xmlns:v="https://vecta.io/nano"><defs><path id="A" d="M0 0h33.143v29H0"/></defs><g fill="none" fill-rule="evenodd"><mask id="B" fill="#fff"><use xlink:href="#A"/></mask><path d="M29 21.307v1.124c-.338 2.484-2.808 4.455-5.871 4.497-2.194.03-4.783-1.159-6.87-2.248-5.651-2.949-10.887-9.287-12.116-15.863V7.318c.738-2.843 1.863-5.298 5.496-5.246.867.836 1.249 1.752 1.874 2.873.453.813 1.664 2.346 1.624 3.123-.095 1.819-2.997 2.112-3.123 3.622-.071.851 1.125 2.399 1.624 3.123.635.921 1.406 1.914 2.123 2.623.802.794 4.307 3.801 5.746 3.622 1.338-.166 1.938-3.041 3.497-3.123.653-.034 2.056.974 2.998 1.499 1.23.685 2.405 1.377 2.998 1.874" stroke="#3389b8" stroke-width="2" mask="url(#B)"/></g></svg>