<svg xmlns="http://www.w3.org/2000/svg" xmlns:xlink="http://www.w3.org/1999/xlink" width="32" height="28" xmlns:v="https://vecta.io/nano"><defs><path id="A" d="M0 0h32v28H0"/></defs><g fill-rule="evenodd"><mask id="B" fill="#fff"><use xlink:href="#A"/></mask><path d="M28 20.573v1.085c-.326 2.398-2.711 4.301-5.668 4.341-2.118.029-4.618-1.119-6.633-2.171C10.243 20.982 5.186 14.862 4 8.513V7.066c.712-2.745 1.799-5.115 5.307-5.065.837.807 1.206 1.691 1.809 2.774.437.785 1.607 2.265 1.568 3.015-.091 1.756-2.894 2.04-3.015 3.497-.068.822 1.086 2.316 1.568 3.015.613.889 1.358 1.848 2.05 2.533.775.767 4.158 3.67 5.548 3.497 1.291-.161 1.871-2.937 3.377-3.015.631-.033 1.985.941 2.894 1.447 1.187.661 2.322 1.33 2.894 1.809" fill="currentColor" mask="url(#B)"/></g></svg>