<svg height="56" viewBox="0 0 64 56" width="64" xmlns="http://www.w3.org/2000/svg"><g fill="none" transform="translate(.561493 .872)"><path d="m38.6885355 40.4786747h-3.4467102c-.5086498 0-.9210221.4123723-.9210221.9210221 0 .5087726.4123723.9210221.9210221.9210221h3.4467102c.5086498 0 .9210221-.4122495.9210221-.9210221 0-.5086498-.4123723-.9210221-.9210221-.9210221z" fill="#979797"/><path d="m58.9758274 30.6185808-5.015395-1.9345148-2.5571257-2.5571257c-.1641876-.1641875-.375777-.2530969-.5919102-.2669736v-2.034722c1.2051881-1.28501 2.0630894-2.9122718 2.4092709-4.7454741.2149052.0097014.431898-.0076138.6459435-.0513317 1.2254506-.2508864 2.1149123-1.3879188 2.1149123-2.703384v-.6716093c0-.7610098-.3086038-1.459513-.8111134-1.9589525.8133239-4.42336206.1434338-8.02811967-1.9459355-10.44082911-2.020968-2.33362434-5.2769653-3.44904347-9.4155473-3.22517371-3.8235924.20667736-6.2919316 1.96595233-7.0739407 2.60956256-.4280911.05084042-1.157295.20115122-1.8953407.64397863-1.0229485.61376912-2.2422589 1.90307722-2.2422589 4.5596733 0 2.31753713.3703737 4.25242033.6385753 5.35015583-.8989176.4379153-1.5002836 1.3869365-1.5002836 2.4719005v.661171c0 1.3154652.8894618 2.4524976 2.1149123 2.703384.2140456.0438407.4311612.0610331.6459435.0513317.3461815 1.8332023 1.2042057 3.4604641 2.409271 4.7454741v2.034722c-.2161332.0138767-.4278455.102786-.5919102.2669736l-2.5571257 2.5571257-5.015395 1.9345148c-.4338628.1672576-.8483228.3842504-1.2317136.6447154-.4207229.2858853-.5300175.8586382-.244255 1.2793611.178187.2623071.4678792.4035304.7626063.4035304.178187 0 .3582161-.0517.5167547-.1592754.267342-.1816255.556543-.3329188.8594978-.4498272l4.6546-1.795379 3.5588293 5.3383668c.4411082.661785 1.1482076 1.0863148 1.9396725 1.1646631.0880497.008719.1760994.0130171.2635351.0130171.4581778 0 .9027245-.1204697 1.2961851-.3431114l-.7637115 17.3235656c-.0224729.5081586.3713561.9383373.8796375.9606875.0137539.0011052.0275078.0011052.0412618.0011052.4899837 0 .8976895-.3864609.9194256-.8807427l.7088186-16.0799403h1.9120418l.7088186 16.0799403c.0217362.4944046.4294419.8807427.9194257.8807427.0137539 0 .0275078 0 .0412618-.0011052.5081585-.0223502.9019876-.4525289.8796374-.9606875l-.7637115-17.3235656c.3934607.2226417.8378845.3431114 1.2961851.3431114.0874357 0 .1754854-.0042981.2635351-.0130171.791465-.0783483 1.4984415-.5028781 1.9396725-1.1646631l3.5588293-5.3383668 4.6546 1.795379c.6528205.2517461 1.2147667.6534345 1.6566117 1.1545933l-3.1844031 3.1844032c-1.1505408 1.1505407-1.7840812 2.6801742-1.7840812 4.3070676v13.0957059c0 .5086498.4123723.9211449.9210221.9211449s.9210221-.4124951.9210221-.9211449v-13.0957059c0-1.134822.4419678-2.2019796 1.244485-3.0044968l2.7947494-2.7947494c.1122419.4117583.1646787.8446386.1469951 1.2872204l-.7133623 17.5703996c-.0206309.5082814.3746718.9369865.8828304.9577402.0127715.0007368.0254202.0007368.0380689.0007368.4913346 0 .8995316-.3881801.9195484-.8835672l.7136079-17.5708908c.1045054-2.6063697-1.4603726-4.9881327-3.8940813-5.9268384zm-22.6763004-11.9186397c-.1624683-.884304-.9813183-1.5270547-1.8651311-1.4616007-.0698749.0050349-.1418374.0001228-.2142911-.0146135-.3661984-.0749098-.6423822-.4613707-.6423822-.898672v-.6614166c0-.4272315.2855168-.8120959.6498732-.8760762.3074985-.0540333.60198.0588226.7882721.3018496.1690996.2204313.3946886.3781103.6522064.4557217.3772506.1139612.7931842.0470336 1.1129631-.1786783.5759458-.4066005 1.0841044-.9033384 1.5103534-1.4765825.3035689-.408197.2185892-.9851253-.189485-1.2885713-.4083198-.3035689-.9851252-.2187121-1.2886941.1894849-.2125719.2858853-.4527744.5453679-.7171691.7750094-.2920254-.2497812-.633172-.4303015-.9987564-.5333332-.2366413-.9065313-.6578554-2.8486599-.6578554-5.19100323 0-1.41063742.4348453-2.40177998 1.2923782-2.94579702.6691533-.42452977 1.3773578-.44147658 1.3768666-.44159938.2354133 0 .4645636-.09271622.6355053-.2544477.0224729-.02112211 2.2865908-2.12228047 6.1639709-2.3319051 3.5492507-.19157259 6.28923.70439769 7.9236144 2.59163332 1.6472786 1.9022176 2.1958394 4.82259441 1.6007363 8.47782401-.2467111-.008719-.5167548.0099471-.7855704.0547701l-.8652695-2.0780714c-.1765907-.4239157-.6390666-.6528204-1.0833676-.5370173-.0855937.0223502-8.5910484 2.1785243-12.1573686-2.26153897-.3184281-.3965307-.898058-.45989702-1.2948343-.14134619-.3965307.31855084-.459897.89818073-.1412234 1.29483424 3.6418441 4.53413032 10.8680606 3.54777702 13.2735246 3.06675792l.6691533 1.6068765c.2877273.6907666 1.0238081 1.0680172 1.7493279.8969527.2977971-.0701205.5823315-.0717169.6891701-.0505948.3724613.074173.6533117.4456519.6533117.8644099v.6717321c0 .4374241-.2761839.8237622-.6423822.898672-.072331.0148591-.1446619.0197712-.2142912.0146135-.88369-.0643487-1.70254.5771739-1.8651311 1.4617235-.6700128 3.6477386-3.8490126 6.2953701-7.5590124 6.2953701-3.7099997 0-6.8889995-2.6476315-7.5590124-6.2953701zm4.0857768 16.280723c-.2335712.2335712-.5050885.2449919-.6463119.2309924-.1411006-.0138768-.4052497-.0784711-.5884717-.3533041l-3.585232-5.3777865 1.4418294-1.4418294 5.5040279 4.8160859zm2.5983875 1.2166088.0557525-1.2658528.8189728-.8189728.8189729.8189728.0557525 1.2658528zm.8748481-4.6112506-5.1106901-4.4718691v-1.7627135c1.4859156.9449686 3.2439626 1.4859156 5.1106901 1.4859156 1.8667276 0 3.6248973-.540947 5.1108129-1.4859156v1.7627135zm4.7082649 3.2723301c-.1833448.2749558-.4474939.3394273-.5884717.3533041-.1413462.0139995-.4128635.0025788-.6464347-.2311152l-2.1258418-2.1258417 5.504028-4.8160859 1.4418293 1.4418294z" fill="#3389b8"/><g fill="#979797"><path d="m29.2080254 35.4453505-4.4972894-1.9630051-2.4583921-2.4583921c-.1646787-.1648016-.376391-.2532197-.5919102-.2669736v-1.448952c2.1010356-1.3806735 3.6385284-3.5765129 4.1325647-6.1930752.2419218.0108066.4861768-.0124031.7268706-.0692609 1.1785399-.2788855 2.0338624-1.4083041 2.0338624-2.6854547v-.6714865c0-.9330568-.4629671-1.7724149-1.1802591-2.2648547.2109754-.8357969.3185508-1.6908738.3185508-2.5515996 0-3.8157331-2.0625982-7.17660403-5.1716004-9.10632948-.0331568-3.18464874-2.7513999-5.76596662-6.0895523-5.76596662-3.3381525 0-6.0563956 2.58131788-6.0895524 5.76596662-3.10887933 1.92972545-5.17147758 5.29071918-5.17147758 9.10632948 0 .858147.10683856 1.7107678.31658599 2.5442314-.71692358.4899837-1.17829424 1.3332715-1.17829424 2.2822927v.6614167c0 1.2771506.8553225 2.4065692 2.03386235 2.6854547.24069377.0569806.48482602.0800675.72687062.0692609.49403625 2.6165623 2.03165191 4.8124017 4.13268746 6.1930752v1.448952c-.2155192.0137539-.4272314.102172-.5919102.2669736l-2.45839211 2.4583921-4.4971666 1.9630051c-2.28818725.9988791-3.7544544 3.345889-3.64872106 5.8403852l.54389423 12.832048c.02099931.4948958.42882788.8822163.91954845.8822163.01313991 0 .02640263 0 .03966535-.0009824.50828138-.0214905.90272444-.4509324.88123392-.9592138l-.54401704-12.8321708c-.03499884-.8268322.17990631-1.6291039.583928-2.3196248l2.41737594 2.9008511c.76395712.916724 1.1845572 2.0786854 1.1845572 3.2718388v9.018157c0 .5086498.41237228.9211449.92102208.9211449.50864979 0 .92102207-.4124951.92102207-.9211449v-9.018157c0-1.6232093-.57238452-3.2039288-1.61154303-4.4509926l-2.5698972-3.0839504c.21846644-.1505564.45068681-.2839204.69887155-.3922326l3.91937876-1.7108906 2.76969759 4.495693c.2734822.4439326.7256426.7449226 1.2406781.8259726.0925935.0146135.1854325.0217361.2779031.0217361.4210913 0 .8312531-.1492056 1.1564353-.4267402l1.7550997-1.4975819v15.2370208c0 .5086498.4123723.9212677.9210221.9212677s.921022-.4126179.921022-.9212677v-15.2367752l1.7549769 1.4975819c.3251822.2775346.735344.4267402 1.1564353.4267402.0923478 0 .1853097-.0072454.2779031-.0217361.5150355-.08105.967196-.38204 1.2406781-.8259726l2.7696976-4.4958158 3.9193788 1.7108906c.2480619.1083122.4804051.2416762.6988715.3922326l-2.5698972 3.0839504c-1.0391585 1.246941-1.611543 2.8277833-1.611543 4.4509926v9.018157c0 .5086498.4123723.9210221.9210221.9210221s.9210221-.4123723.9210221-.9210221v-9.018157c0-1.1931534.4207228-2.3551148 1.1845572-3.2718388l2.4173759-2.9008511c.4040217.6905209.6189268 1.4927926.583928 2.3196248l-.5438942 12.8321708c-.0214906.5081586.3729525.9376005.8812339.9592138.0132627.0008596.0264026.0008596.0396653.0008596.4907206 0 .8985492-.3870749.9195485-.8820935l.5438942-12.832048c.1056105-2.4944962-1.3607794-4.8416289-3.6490895-5.840508zm-12.7769094-33.60330634c1.9594437 0 3.612617 1.25001116 4.1014955 2.94370936-1.2715017-.47991391-2.6549997-.74381743-4.1014955-.74381743-1.4464959 0-2.8299939.26390352-4.1014956.74381743.4888786-1.6936982 2.141929-2.94370936 4.1014956-2.94370936zm-7.55913523 20.89332444c-.16234549-.8845496-.98254636-1.5270546-1.86500831-1.4617235-.07822547.0055262-.15902981-.0011052-.24057097-.020508-.35121641-.0831376-.61610236-.4670196-.61610236-.8929002v-.6614167c0-.4272314.28551684-.8120959.64987317-.8760762.30749857-.0540333.60185723.0589454.78802649.3017268.16909966.2205541.39468866.3782331.65245204.4560902.37712784.1139611.79330702.0470335 1.11284028-.1788011.5672268-.4003376 1.06875399-.8883565 1.49070489-1.4503028.305411-.4067233.2232558-.9841428-.1834676-1.2894309-.4068461-.3054109-.98414275-.2232557-1.28955367.1834676-.2088878.2781487-.44405544.5309999-.70267844.7556065-.39407465-.3369713-.87730423-.5479467-1.38988372-.6119271-.17646783-.6937138-.26672799-1.4031464-.26672799-2.1167543 0-4.9560812 4.22540372-8.98831585 9.41923142-8.98831585 5.1937049 0 9.4191086 4.03211185 9.4191086 8.98831585 0 .7122571-.089769 1.420216-.2656228 2.1127018-.242413.0192801-.4887557.0589455-.7168008.1181365l-.692363-.5693145c-.3479007-.2861308-.785816-.4293191-1.2290119-.4029164-1.3537796.0799447-8.2869882.2630439-11.8440983-3.994043-.3261646-.3902677-.9068997-.4423362-1.29729027-.1161716-.39039055.3261647-.4423362.9070226-.11617158 1.2972903 1.75436285 2.099562 4.32745295 3.5192868 7.64767615 4.2197548 2.5421437.5362805 4.8019635.484212 5.6873727.43374l1.0801747.8882337c.2973059.2445006.7142219.2790083 1.0471407.0852252.1562053-.0851024.6793459-.166398.9076366-.1208381.3724613.0740502.6531888.4456519.6531888.8645328v.6714865c0 .4260034-.2648859.8098854-.6161024.8929002-.0814183.01928-.1623455.0262798-.2405709.0203852-.8819708-.0641031-1.7026628.5772967-1.8651311 1.4617235-.6700129 3.6478614-3.8490127 6.2954929-7.5590124 6.2954929-3.7101226 0-6.88924517-2.6476315-7.55925803-6.2953701zm3.74008643 16.1579201-2.77018878-4.4965526 1.41911078-1.4191108 3.8140139 3.8140138zm3.8190488-3.3506783-3.3873964-3.3873964v-1.9054105c1.0574561.4025481 2.2001375.6229793 3.3873964.6229793 1.1872588 0 2.3299402-.2204312 3.3873964-.6228565v1.9052877zm3.8190487 3.3506783-2.4629358-2.1016496 3.8140138-3.8140138 1.4191108 1.4191108z"/><path d="m12.9844057 44.5409961h-2.5850019c-.50864981 0-.9210221.4123723-.9210221.9210221s.41237229.921022.9210221.921022h2.5850019c.5086498 0 .9210221-.4123722.9210221-.921022s-.4123723-.9210221-.9210221-.9210221z"/></g></g></svg>