<svg height="22" viewBox="0 0 35 22" width="35" xmlns="http://www.w3.org/2000/svg"><path d="m15.3076 7.333328c0-4.05263-3.4241-7.333328-7.6538-7.333328-4.22973 0-7.6538 3.039468-7.6538 8.684208 0 7.81582 6.09283 13.21932 12.6892 13.31582 1.1078 0 1.712-.6272 1.712-1.6886v-.0483c0-1.0614-.3021-1.5438-.856-1.6886-1.7624-.2894-5.3375-1.2061-6.49565-3.9079 5.43825 0 8.25805-3.3289 8.25805-7.3333zm10.4344 7.3333c1.1581 2.7018 4.7332 3.6185 6.4956 3.9079.5539.1448.856.6272.856 1.6886v.0483c0 1.0614-.6042 1.6886-1.712 1.6886-6.5964-.0965-12.6892-5.5-12.6892-13.31582 0-5.64474 3.4241-8.684208 7.6538-8.684208s7.6538 3.280698 7.6538 7.333328c0 4.0526-2.7695 7.3333-8.258 7.3333z" transform="translate(.5)"/></svg>